# xmcd CD database file
#
# Track frame offsets:
#	150
#	18790
#	33437
#	51222
#	65260
#	82642
#	96345
#	117022
#	127092
#	139035
#	153642
#	164492
#
# Disc length: 2352 seconds
#
# Revision: 0
# Processed by: cddbd v1.4PL0 Copyright (c) Steve Scherf et al.
# Submitted via: CDex 1.50Beta5
#
DISCID=95092e0c
DTITLE=Marlice Botelho Belleza - Mar de Fluidos
DYEAR=2002
DGENRE=New Age
TTITLE0=Mar de Fluidos
TTITLE1=Candura
TTITLE2=Às Margens do Rio Ganges
TTITLE3=sempre
TTITLE4=Alegria de Viver
TTITLE5=Tema de Amor
TTITLE6=Eterrna Saudade
TTITLE7=Dedicação
TTITLE8=Luz na Penumbra
TTITLE9=Rosas Para Scheila
TTITLE10=Sublime Afeição
TTITLE11=Presença de Amor
EXTD=YEAR: 2002
EXTT0=
EXTT1=
EXTT2=
EXTT3=
EXTT4=
EXTT5=
EXTT6=
EXTT7=
EXTT8=
EXTT9=
EXTT10=
EXTT11=
PLAYORDER=
